<?xml version="1.0" encoding="UTF-8" standalone="no"?>
<!-- Created with Inkscape (http://www.inkscape.org/) -->

<svg
   xmlns:dc="http://purl.org/dc/elements/1.1/"
   xmlns:cc="http://creativecommons.org/ns#"
   xmlns:rdf="http://www.w3.org/1999/02/22-rdf-syntax-ns#"
   xmlns:svg="http://www.w3.org/2000/svg"
   xmlns="http://www.w3.org/2000/svg"
   xmlns:xlink="http://www.w3.org/1999/xlink"
   xmlns:sodipodi="http://sodipodi.sourceforge.net/DTD/sodipodi-0.dtd"
   xmlns:inkscape="http://www.inkscape.org/namespaces/inkscape"
   width="86"
   height="86"
   id="svg2"
   version="1.1"
   inkscape:version="0.91 r13725"
   sodipodi:docname="harbour-ttrss-cnlpete.svg"
   inkscape:export-filename="/home/hauke/Programme/ttrss/images/icons/86x86/harbour-ttrss-cnlpete.png"
   inkscape:export-xdpi="90.629997"
   inkscape:export-ydpi="90.629997">
  <defs
     id="defs4">
    <linearGradient
       inkscape:collect="always"
       id="bg-brown-6">
      <stop
         style="stop-color:#291a12;stop-opacity:1;"
         offset="0"
         id="stop4190" />
      <stop
         style="stop-color:#93847b;stop-opacity:1"
         offset="1"
         id="stop4192" />
    </linearGradient>
    <linearGradient
       id="linearGradient3789-6-3">
      <stop
         id="stop4184"
         offset="0"
         style="stop-color:#1b2d43;stop-opacity:0.93333334" />
      <stop
         id="stop4186"
         offset="1"
         style="stop-color:#1b2d43;stop-opacity:1" />
    </linearGradient>
    <linearGradient
       id="linearGradient3789-6">
      <stop
         style="stop-color:#1b2d43;stop-opacity:0.93333334"
         offset="0"
         id="stop3791-0" />
      <stop
         style="stop-color:#1b2d43;stop-opacity:1"
         offset="1"
         id="stop3793-4" />
    </linearGradient>
    <linearGradient
       y2="339.22189"
       x2="288.49411"
       y1="55.888199"
       x1="288.49411"
       gradientUnits="userSpaceOnUse"
       id="linearGradient3353"
       xlink:href="#SVGID_1_"
       inkscape:collect="always" />
    <linearGradient
       y2="339.22159"
       x2="251.2114"
       y1="55.888199"
       x1="251.2114"
       gradientUnits="userSpaceOnUse"
       id="linearGradient3355"
       xlink:href="#SVGID_2_"
       inkscape:collect="always" />
    <linearGradient
       y2="339.22171"
       x2="293.22461"
       y1="55.888199"
       x1="293.22461"
       gradientUnits="userSpaceOnUse"
       id="linearGradient3357"
       xlink:href="#SVGID_3_"
       inkscape:collect="always" />
    <linearGradient
       y2="339.22159"
       x2="375.33401"
       y1="55.888199"
       x1="375.33401"
       gradientUnits="userSpaceOnUse"
       id="linearGradient3359"
       xlink:href="#SVGID_4_"
       inkscape:collect="always" />
    <linearGradient
       y2="339.22159"
       x2="334.49411"
       y1="55.888199"
       x1="334.49411"
       gradientUnits="userSpaceOnUse"
       id="linearGradient3361"
       xlink:href="#SVGID_5_"
       inkscape:collect="always" />
    <linearGradient
       y2="339.2236"
       x2="458.42679"
       y1="55.8867"
       x1="458.42679"
       gradientUnits="userSpaceOnUse"
       id="linearGradient3363"
       xlink:href="#SVGID_6_"
       inkscape:collect="always" />
    <linearGradient
       y2="339.22131"
       x2="413.16309"
       y1="55.888199"
       x1="413.16309"
       gradientUnits="userSpaceOnUse"
       id="linearGradient3365"
       xlink:href="#SVGID_7_"
       inkscape:collect="always" />
    <linearGradient
       y2="339.2236"
       x2="290.76169"
       y1="55.8867"
       x1="290.76169"
       gradientUnits="userSpaceOnUse"
       id="linearGradient3367"
       xlink:href="#SVGID_8_"
       inkscape:collect="always" />
    <linearGradient
       y2="339.22119"
       x2="346.77341"
       y1="55.888199"
       x1="346.77341"
       gradientUnits="userSpaceOnUse"
       id="linearGradient3369"
       xlink:href="#SVGID_9_"
       inkscape:collect="always" />
    <linearGradient
       id="SVGID_1_"
       gradientUnits="userSpaceOnUse"
       x1="288.49411"
       y1="55.888199"
       x2="288.49411"
       y2="339.22189">
      <stop
         offset="0"
         style="stop-color:#BED5E1"
         id="stop261" />
      <stop
         offset="1"
         style="stop-color:#567B8F"
         id="stop263" />
    </linearGradient>
    <linearGradient
       id="SVGID_2_"
       gradientUnits="userSpaceOnUse"
       x1="251.2114"
       y1="55.888199"
       x2="251.2114"
       y2="339.22159">
      <stop
         offset="0"
         style="stop-color:#BED5E1"
         id="stop268" />
      <stop
         offset="1"
         style="stop-color:#567B8F"
         id="stop270" />
    </linearGradient>
    <linearGradient
       id="SVGID_3_"
       gradientUnits="userSpaceOnUse"
       x1="293.22461"
       y1="55.888199"
       x2="293.22461"
       y2="339.22171">
      <stop
         offset="0"
         style="stop-color:#BED5E1"
         id="stop275" />
      <stop
         offset="1"
         style="stop-color:#567B8F"
         id="stop277" />
    </linearGradient>
    <linearGradient
       id="SVGID_4_"
       gradientUnits="userSpaceOnUse"
       x1="375.33401"
       y1="55.888199"
       x2="375.33401"
       y2="339.22159">
      <stop
         offset="0"
         style="stop-color:#BED5E1"
         id="stop282" />
      <stop
         offset="1"
         style="stop-color:#567B8F"
         id="stop284" />
    </linearGradient>
    <linearGradient
       id="SVGID_5_"
       gradientUnits="userSpaceOnUse"
       x1="334.49411"
       y1="55.888199"
       x2="334.49411"
       y2="339.22159">
      <stop
         offset="0"
         style="stop-color:#BED5E1"
         id="stop289" />
      <stop
         offset="1"
         style="stop-color:#567B8F"
         id="stop291" />
    </linearGradient>
    <linearGradient
       id="SVGID_6_"
       gradientUnits="userSpaceOnUse"
       x1="458.42679"
       y1="55.8867"
       x2="458.42679"
       y2="339.2236">
      <stop
         offset="0"
         style="stop-color:#BED5E1"
         id="stop296" />
      <stop
         offset="1"
         style="stop-color:#567B8F"
         id="stop298" />
    </linearGradient>
    <linearGradient
       id="SVGID_7_"
       gradientUnits="userSpaceOnUse"
       x1="413.16309"
       y1="55.888199"
       x2="413.16309"
       y2="339.22131">
      <stop
         offset="0"
         style="stop-color:#BED5E1"
         id="stop303" />
      <stop
         offset="1"
         style="stop-color:#567B8F"
         id="stop305" />
    </linearGradient>
    <linearGradient
       id="SVGID_8_"
       gradientUnits="userSpaceOnUse"
       x1="290.76169"
       y1="55.8867"
       x2="290.76169"
       y2="339.2236">
      <stop
         offset="0"
         style="stop-color:#BED5E1"
         id="stop310" />
      <stop
         offset="1"
         style="stop-color:#567B8F"
         id="stop312" />
    </linearGradient>
    <linearGradient
       id="SVGID_9_"
       gradientUnits="userSpaceOnUse"
       x1="346.77341"
       y1="55.888199"
       x2="346.77341"
       y2="339.22119">
      <stop
         offset="0"
         style="stop-color:#BED5E1"
         id="stop317" />
      <stop
         offset="1"
         style="stop-color:#567B8F"
         id="stop319" />
    </linearGradient>
    <linearGradient
       inkscape:collect="always"
       xlink:href="#bg-brown-6"
       id="linearGradient4194"
       x1="0"
       y1="90"
       x2="86"
       y2="4"
       gradientUnits="userSpaceOnUse" />
    <filter
       color-interpolation-filters="sRGB"
       inkscape:menu-tooltip="Glow of object's own color at the edges"
       inkscape:menu="Shadows and Glows"
       inkscape:label="Glow"
       id="filter4035">
      <feGaussianBlur
         result="result91"
         stdDeviation="5"
         id="feGaussianBlur4037" />
      <feComposite
         operator="over"
         in="SourceGraphic"
         in2="result91"
         id="feComposite4039" />
    </filter>
    <filter
       y="-.25"
       x="-.25"
       height="1.5"
       width="1.5"
       inkscape:label="Drop shadow"
       id="filter4044">
      <feGaussianBlur
         result="blur"
         stdDeviation="2"
         in="SourceAlpha"
         id="feGaussianBlur4046" />
      <feColorMatrix
         values="1 0 0 0 0 0 1 0 0 0 0 0 1 0 0 0 0 0 0.5 0 "
         type="matrix"
         result="bluralpha"
         id="feColorMatrix4048" />
      <feOffset
         result="offsetBlur"
         dy="1"
         dx="1"
         in="bluralpha"
         id="feOffset4050" />
      <feMerge
         id="feMerge4052">
        <feMergeNode
           in="offsetBlur"
           id="feMergeNode4054" />
        <feMergeNode
           in="SourceGraphic"
           id="feMergeNode4056" />
      </feMerge>
    </filter>
    <linearGradient
       gradientUnits="userSpaceOnUse"
       y2="211.27248"
       x2="217.63582"
       y1="39.288776"
       x1="46.536098"
       id="linearGradient3890"
       xlink:href="#RSSg"
       inkscape:collect="always" />
    <linearGradient
       gradientUnits="userSpaceOnUse"
       x1="30.059999"
       y1="30.059999"
       x2="225.94"
       y2="225.94"
       id="RSSg">
      <stop
         offset="0.0"
         stop-color="#E3702D"
         id="stop3838" />
      <stop
         offset="0.1071"
         stop-color="#EA7D31"
         id="stop3840" />
      <stop
         offset="0.3503"
         stop-color="#F69537"
         id="stop3842" />
      <stop
         offset="0.5"
         stop-color="#FB9E3A"
         id="stop3844" />
      <stop
         offset="0.7016"
         stop-color="#EA7C31"
         id="stop3846" />
      <stop
         offset="0.8866"
         stop-color="#DE642B"
         id="stop3848" />
      <stop
         offset="1.0"
         stop-color="#D95B29"
         id="stop3850" />
    </linearGradient>
    <linearGradient
       gradientUnits="userSpaceOnUse"
       y2="125.5"
       x2="220.00627"
       y1="125.5"
       x1="42.993729"
       id="linearGradient5363"
       xlink:href="#RSSg"
       inkscape:collect="always" />
    <filter
       y="-0.25"
       x="-0.25"
       height="1.5"
       width="1.5"
       inkscape:label="Drop shadow"
       id="filter5699"
       color-interpolation-filters="sRGB">
      <feGaussianBlur
         result="blur"
         stdDeviation="2"
         in="SourceAlpha"
         id="feGaussianBlur5701" />
      <feColorMatrix
         values="1 0 0 0 0 0 1 0 0 0 0 0 1 0 0 0 0 0 0.5 0 "
         type="matrix"
         result="bluralpha"
         id="feColorMatrix5703" />
      <feOffset
         result="offsetBlur"
         dy="2"
         dx="2"
         in="bluralpha"
         id="feOffset5705" />
      <feMerge
         id="feMerge5707">
        <feMergeNode
           in="offsetBlur"
           id="feMergeNode5709" />
        <feMergeNode
           in="SourceGraphic"
           id="feMergeNode5711" />
      </feMerge>
    </filter>
    <linearGradient
       inkscape:collect="always"
       xlink:href="#RSSg"
       id="linearGradient4570"
       gradientUnits="userSpaceOnUse"
       x1="46.536098"
       y1="39.288776"
       x2="217.63582"
       y2="211.27248" />
    <linearGradient
       inkscape:collect="always"
       xlink:href="#RSSg"
       id="linearGradient4572"
       gradientUnits="userSpaceOnUse"
       x1="42.993729"
       y1="125.5"
       x2="220.00627"
       y2="125.5" />
    <linearGradient
       inkscape:collect="always"
       xlink:href="#RSSg"
       id="linearGradient4574"
       gradientUnits="userSpaceOnUse"
       x1="46.536098"
       y1="39.288776"
       x2="217.63582"
       y2="211.27248" />
    <linearGradient
       inkscape:collect="always"
       xlink:href="#RSSg"
       id="linearGradient4576"
       gradientUnits="userSpaceOnUse"
       x1="42.993729"
       y1="125.5"
       x2="220.00627"
       y2="125.5" />
    <linearGradient
       inkscape:collect="always"
       xlink:href="#RSSg"
       id="linearGradient4578"
       gradientUnits="userSpaceOnUse"
       x1="46.536098"
       y1="39.288776"
       x2="217.63582"
       y2="211.27248" />
    <linearGradient
       inkscape:collect="always"
       xlink:href="#RSSg"
       id="linearGradient4580"
       gradientUnits="userSpaceOnUse"
       x1="42.993729"
       y1="125.5"
       x2="220.00627"
       y2="125.5" />
    <linearGradient
       inkscape:collect="always"
       xlink:href="#RSSg"
       id="linearGradient4582"
       gradientUnits="userSpaceOnUse"
       x1="46.536098"
       y1="39.288776"
       x2="217.63582"
       y2="211.27248" />
    <linearGradient
       inkscape:collect="always"
       xlink:href="#RSSg"
       id="linearGradient4584"
       gradientUnits="userSpaceOnUse"
       x1="42.993729"
       y1="125.5"
       x2="220.00627"
       y2="125.5" />
    <linearGradient
       inkscape:collect="always"
       xlink:href="#RSSg"
       id="linearGradient4586"
       gradientUnits="userSpaceOnUse"
       x1="46.536098"
       y1="39.288776"
       x2="217.63582"
       y2="211.27248" />
    <linearGradient
       inkscape:collect="always"
       xlink:href="#RSSg"
       id="linearGradient4588"
       gradientUnits="userSpaceOnUse"
       x1="42.993729"
       y1="125.5"
       x2="220.00627"
       y2="125.5" />
  </defs>
  <sodipodi:namedview
     id="base"
     pagecolor="#ffffff"
     bordercolor="#666666"
     borderopacity="1.0"
     inkscape:pageopacity="0.0"
     inkscape:pageshadow="2"
     inkscape:zoom="5.6568542"
     inkscape:cx="68.479537"
     inkscape:cy="35.145316"
     inkscape:document-units="px"
     inkscape:current-layer="layer2"
     showgrid="true"
     inkscape:window-width="1920"
     inkscape:window-height="1016"
     inkscape:window-x="0"
     inkscape:window-y="27"
     inkscape:window-maximized="1"
     inkscape:snap-bbox="true"
     inkscape:snap-global="true">
    <inkscape:grid
       type="xygrid"
       id="grid2985"
       empspacing="5"
       visible="true"
       enabled="true"
       snapvisiblegridlinesonly="true" />
    <sodipodi:guide
       position="0,0"
       orientation="0,86"
       id="guide4694" />
    <sodipodi:guide
       position="86,0"
       orientation="-86,0"
       id="guide4696" />
    <sodipodi:guide
       position="86,86"
       orientation="0,-86"
       id="guide4698" />
    <sodipodi:guide
       position="0,86"
       orientation="86,0"
       id="guide4700" />
  </sodipodi:namedview>
  <metadata
     id="metadata7">
    <rdf:RDF>
      <cc:Work
         rdf:about="">
        <dc:format>image/svg+xml</dc:format>
        <dc:type
           rdf:resource="http://purl.org/dc/dcmitype/StillImage" />
        <dc:title />
      </cc:Work>
    </rdf:RDF>
  </metadata>
  <g
     inkscape:groupmode="layer"
     id="layer2"
     inkscape:label="Ebene"
     style="display:inline"
     transform="translate(0,-4)">
    <path
       inkscape:connector-curvature="0"
       style="fill:url(#linearGradient4194);fill-opacity:1"
       id="path11"
       d="M 84.277,4.3 H 43 C 19.417,4.3 0.3,23.418 0.3,47 v 41.277 c 0,0.786 0.637,1.423 1.423,1.423 H 43 C 66.583,89.7 85.7,70.582 85.7,47 V 5.723 C 85.7,4.937 85.063,4.3 84.277,4.3 z" />
    <path
       style="fill:#1b2b43;fill-opacity:0"
       d="m 76.670771,60.999268 -3.24577,-3.249332 0.55053,-0.463242 c 0.302792,-0.254782 0.763412,-0.898356 1.023601,-1.430162 1.562106,-3.192829 -0.796185,-6.971801 -4.350795,-6.971801 l -0.649637,0 -0.118106,1.281631 c -0.06496,0.704898 -0.24754,1.744659 -0.405736,2.310583 -0.277078,0.991198 -0.299212,1.017143 -0.603268,0.707107 -0.291036,-0.296762 -0.295836,-0.397178 -0.06159,-1.288448 0.799082,-3.040371 -0.209081,-6.531782 -2.553967,-8.844742 -1.384423,-1.365574 -2.507466,-2.003025 -4.366547,-2.478498 -1.621997,-0.414836 -2.564411,-0.433732 -4.213057,-0.08447 -1.17771,0.249496 -1.693859,0.168631 -1.693859,-0.265372 0,-0.149846 2.083409,-0.706953 2.643788,-0.706953 0.469204,0 0.471788,-0.489296 0.01046,-1.982867 -1.059527,-3.43035 -3.97056,-5.74693 -7.651534,-6.089039 l -1.21896,-0.113291 0.03023,0.866423 c 0.01664,0.476533 0.02316,1.097515 0.01453,1.37996 -0.01536,0.502153 -0.02354,0.506444 -0.369261,0.193572 -0.21361,-0.193314 -0.353554,-0.544467 -0.353554,-0.887154 0,-2.001871 -1.056769,-4.492958 -2.531698,-5.967888 -1.513775,-1.513776 -4.033251,-2.602511 -6.022547,-2.602511 -0.491949,0 -1.527248,-0.976715 -9.654396,-9.108077 C 23.631961,7.953261 21.830333,6.0616938 22.041445,5.9252906 22.772646,5.4528494 25.151432,4.2898712 26.704761,3.6454154 30.325692,2.1431383 34.579495,1.0424413 38.342128,0.63417676 39.452658,0.51367873 47.978089,0.44791647 62.488944,0.44791647 l 22.430208,0 0.336758,0.37218361 c 0.327442,0.36188762 0.336758,0.99395512 0.336758,22.84838792 0,17.700679 -0.04997,22.851802 -0.235164,24.243972 -0.715007,5.374838 -2.330142,10.529919 -4.66379,14.885586 l -0.777171,1.450555 -3.245772,-3.249333 z"
       id="path4670"
       inkscape:connector-curvature="0"
       transform="translate(0,4)" />
    <path
       style="fill:#1b2b43;fill-opacity:0"
       d="m 57.523362,68.00966 -9.837828,-9.844152 0.922345,-0.40096 c 1.308123,-0.568665 3.156429,-2.006878 4.095781,-3.187029 1.848475,-2.322324 2.75046,-4.883843 2.745968,-7.798191 -0.0033,-2.115759 -0.339158,-3.572903 -1.265394,-5.489371 -1.020712,-2.111947 -3.139713,-4.233384 -5.272731,-5.278791 -0.826431,-0.405039 -2.019673,-0.869478 -2.65165,-1.032084 -1.512005,-0.389038 -4.31129,-0.3801 -5.833631,0.01863 -3.393397,0.888789 -6.482681,3.354248 -7.898558,6.303581 -0.274085,0.570931 -0.548257,1.039101 -0.609273,1.040379 -0.06102,0.0012 -0.204752,-0.110717 -0.319413,-0.248877 -0.164365,-0.198047 -0.10804,-0.45053 0.266191,-1.193243 0.261067,-0.518123 0.614764,-1.140917 0.785993,-1.383985 0.306172,-0.434624 0.299781,-0.460966 -0.385918,-1.59099 -0.383485,-0.631976 -0.825248,-1.606458 -0.981697,-2.165514 l -0.284455,-1.016466 -1.082925,0 c -1.218328,0 -2.781569,0.359799 -3.783048,0.870717 l -0.670514,0.34207 -8.692131,-8.693928 -8.6921309,-8.693927 1.3558697,-1.767767 C 10.981078,14.782976 14.438584,11.257827 16.358517,9.7399889 22.556682,4.8399156 29.87552,1.7406728 37.658026,0.72047527 39.435383,0.48748422 42.938235,0.44791647 61.787101,0.44791647 l 22.049877,0 0.930878,0.94258723 0.93088,0.9425872 -0.06267,22.2593541 c -0.06098,21.65712 -0.07278,22.32153 -0.436325,24.557451 -1.822968,11.211886 -7.158702,20.377703 -15.911692,27.333385 -0.719209,0.571528 -1.446974,1.113705 -1.617254,1.204836 -0.258161,0.138165 -1.944164,-1.469918 -10.147428,-9.678457 z m 4.250461,-9.13803 c 3.408363,-0.803602 6.220472,-3.615711 7.024074,-7.024073 0.515769,-2.187561 0.284992,-4.135916 -0.748769,-6.321583 -1.632996,-3.452613 -5.690472,-5.682114 -9.414447,-5.173048 -1.790276,0.24473 -3.423387,0.868421 -3.294972,1.258362 0.805617,2.446342 0.871037,2.818837 0.889315,5.063735 0.01391,1.709688 -0.06232,2.592301 -0.297782,3.447145 -0.442661,1.607107 -1.399475,3.467666 -2.460304,4.784142 l -0.90202,1.119394 0.833611,0.754718 c 2.158957,1.954629 5.456627,2.77841 8.371294,2.091208 z m 11.028991,-0.856764 c 1.651059,-0.805474 2.625194,-2.397325 2.625194,-4.289879 0,-2.610612 -1.735746,-4.499262 -4.389963,-4.776681 l -1.035558,-0.108239 -0.123035,1.475308 c -0.193148,2.316002 -0.774747,3.732873 -2.516363,6.13028 -0.272236,0.374745 -0.270813,0.424492 0.02139,0.747369 0.17217,0.190245 0.719943,0.551662 1.217274,0.80315 0.783158,0.39602 1.081773,0.448959 2.230065,0.395347 0.795712,-0.03715 1.58379,-0.187751 1.971,-0.376655 z M 56.336125,40.045897 c 0.826431,-0.28908 1.770169,-0.526664 2.097197,-0.527965 l 0.594597,-0.0024 -0.125485,-0.839689 c -0.398571,-2.667052 -2.232101,-5.092614 -4.838954,-6.40141 -0.824946,-0.414172 -2.764413,-0.882533 -3.67535,-0.88756 l -0.556306,-0.0031 0.01085,1.458408 c 0.006,0.802124 -0.04613,1.706965 -0.115782,2.010757 -0.119041,0.519243 -0.07608,0.581972 0.716703,1.046577 1.081343,0.633709 3.214972,2.765231 3.846286,3.842487 0.268867,0.458788 0.501178,0.833095 0.516246,0.831794 0.01506,-0.0013 0.703563,-0.238885 1.529994,-0.527964 z M 34.794753,37.142055 c 1.487164,-1.376886 3.842384,-2.590682 5.878366,-3.0295 2.006933,-0.432555 4.837586,-0.285454 6.714582,0.348941 0.766157,0.258948 1.426278,0.437549 1.466939,0.39689 0.04066,-0.04066 0.11801,-0.620304 0.171894,-1.288101 0.193252,-2.395068 -0.668748,-4.687006 -2.467179,-6.559884 -4.202884,-4.376868 -11.392403,-3.176195 -14.026041,2.342392 -1.036285,2.171454 -1.095075,5.053497 -0.145479,7.131499 0.501677,1.097815 0.919817,1.793838 1.077661,1.793838 0.0562,0 0.654371,-0.511233 1.329257,-1.136075 z m -6.678219,-3.022396 c 0.596402,-0.140647 1.462228,-0.256897 1.924057,-0.258334 l 0.839689,-0.0026 0,-1.023519 c 0,-0.562937 0.128904,-1.497644 0.286454,-2.077126 0.520157,-1.91318 0.546274,-1.773064 -0.389967,-2.092073 -2.30181,-0.784305 -4.532652,0.0043 -5.609642,1.98313 -0.642595,1.180658 -0.773116,2.344827 -0.404898,3.611451 l 0.288162,0.991242 0.990889,-0.438219 c 0.544988,-0.241021 1.478854,-0.553293 2.075256,-0.693939 z"
       id="path4672"
       inkscape:connector-curvature="0"
       transform="translate(0,4)" />
    <g
       transform="matrix(0.81663922,0,0,0.81663922,12.155476,24.786853)"
       inkscape:label="Layer 1"
       id="layer1">
      <g
         inkscape:export-ydpi="105.9"
         inkscape:export-xdpi="105.9"
         style="opacity:1;fill:url(#linearGradient3890);fill-opacity:1;stroke:url(#linearGradient5363);stroke-width:2.01254654;stroke-miterlimit:4;stroke-dasharray:none;stroke-opacity:1"
         id="g3022"
         transform="matrix(0.34665172,0,0,0.34665859,-9.5847012,-15.505653)">
        <g
           style="fill:url(#linearGradient4586);fill-opacity:1;stroke:url(#linearGradient4588);stroke-width:2.01254654;stroke-miterlimit:4;stroke-dasharray:none;stroke-opacity:1"
           id="g3776">
          <circle
             style="fill:url(#linearGradient4570);fill-opacity:1;stroke:url(#linearGradient4572);stroke-width:2.01254654;stroke-miterlimit:4;stroke-dasharray:none;stroke-opacity:1"
             id="circle26"
             r="24"
             cy="189"
             cx="68" />
          <path
             style="fill:url(#linearGradient4574);fill-opacity:1;stroke:url(#linearGradient4576);stroke-width:2.01254654;stroke-miterlimit:4;stroke-dasharray:none;stroke-opacity:1"
             inkscape:connector-curvature="0"
             id="path28"
             d="m 160,213 -34,0 A 82,82 0 0 0 44,131 l 0,-34 a 116,116 0 0 1 116,116 z" />
          <g
             id="g3773"
             style="fill:url(#linearGradient4582);fill-opacity:1;stroke:url(#linearGradient4584);stroke-width:2.01254654;stroke-miterlimit:4;stroke-dasharray:none;stroke-opacity:1">
            <path
               d="M 184,213 A 140,140 0 0 0 44,73 l 0,-35 a 175,175 0 0 1 175,175 z"
               id="path30"
               inkscape:connector-curvature="0"
               style="fill:url(#linearGradient4578);fill-opacity:1;stroke:url(#linearGradient4580);stroke-width:2.01254654;stroke-miterlimit:4;stroke-dasharray:none;stroke-opacity:1" />
          </g>
        </g>
      </g>
      <text
         transform="matrix(0.18909237,0,0,0.15956152,-12.197462,62.8128)"
         inkscape:export-ydpi="23.129999"
         inkscape:export-xdpi="23.129999"
         inkscape:export-filename="C:\Users\fox\Desktop\ttrss_logo_big.png"
         sodipodi:linespacing="125%"
         id="text3780"
         y="-45.951401"
         x="124.97492"
         style="font-style:oblique;font-weight:bold;font-size:504.83898926px;line-height:125%;font-family:Sans;-inkscape-font-specification:'Verdana Bold Oblique';letter-spacing:0px;word-spacing:0px;fill:#ffffff;fill-opacity:1;stroke:#2b4265;stroke-width:17.27110672;stroke-miterlimit:4;stroke-dasharray:none;stroke-opacity:1;filter:url(#filter5699)"
         xml:space="preserve"><tspan
           style="font-style:oblique;font-variant:normal;font-weight:bold;font-stretch:normal;font-family:'Segoe UI';-inkscape-font-specification:'Segoe UI Bold Oblique';fill:#ffffff;fill-opacity:1;stroke:#2b4265;stroke-width:17.27110672;stroke-miterlimit:4;stroke-dasharray:none;stroke-opacity:1"
           y="-45.951401"
           x="124.97492"
           id="tspan3782"
           sodipodi:role="line">t</tspan></text>
    </g>
  </g>
</svg>
